<svg width="300" height="166" viewBox="0 0 300 166" fill="none" xmlns="http://www.w3.org/2000/svg">
<path d="M38.5145 166C26.0607 166 16.5282 162.465 9.91691 155.394C3.30564 148.324 0 138.333 0 125.422V40.5778C0 27.6667 3.30564 17.6759 9.91691 10.6056C16.5282 3.53519 26.0607 0 38.5145 0C50.9683 0 60.5008 3.53519 67.1121 10.6056C73.7234 17.6759 77.029 27.6667 77.029 40.5778V125.422C77.029 138.333 73.7234 148.324 67.1121 155.394C60.5008 162.465 50.9683 166 38.5145 166ZM38.5145 142.944C47.2783 142.944 51.6602 137.642 51.6602 127.036V38.9639C51.6602 28.3583 47.2783 23.0556 38.5145 23.0556C29.7507 23.0556 25.3688 28.3583 25.3688 38.9639V127.036C25.3688 137.642 29.7507 142.944 38.5145 142.944Z" fill="#021F27"/>
<path d="M78.0416 139.256H102.488V163.694H78.0416V139.256Z" fill="#021F27"/>
<path d="M142.496 166C130.196 166 120.817 162.542 114.36 155.625C107.902 148.555 104.673 138.487 104.673 125.422V112.742H128.659V127.267C128.659 137.719 133.04 142.944 141.804 142.944C150.568 142.944 154.95 137.719 154.95 127.267V91.0694C154.95 80.4639 150.568 75.1611 141.804 75.1611C133.04 75.1611 128.659 80.4639 128.659 91.0694V92.4528H104.673L109.286 2.30555H176.167V25.3611H131.887L129.812 63.8639H130.273C135.039 56.025 142.342 52.1056 152.182 52.1056C161.407 52.1056 168.403 55.2565 173.169 61.5583C177.936 67.8602 180.319 77.0056 180.319 88.9945V125.422C180.319 138.487 177.09 148.555 170.632 155.625C164.175 162.542 154.796 166 142.496 166Z" fill="#021F27"/>
<path d="M196.824 49.9805C193.293 49.9805 190.589 48.9752 188.712 46.9645C186.879 44.9539 185.963 42.1166 185.963 38.4527V13.2525C185.963 9.58862 186.879 6.75135 188.712 4.74069C190.589 2.73003 193.293 1.7247 196.824 1.7247C200.355 1.7247 203.036 2.73003 204.869 4.74069C206.746 6.75135 207.685 9.58862 207.685 13.2525V18.2121H200.712V12.7833C200.712 9.87905 199.483 8.4269 197.025 8.4269C194.567 8.4269 193.338 9.87905 193.338 12.7833V38.9889C193.338 41.8485 194.567 43.2783 197.025 43.2783C199.483 43.2783 200.712 41.8485 200.712 38.9889V31.8176H207.685V38.4527C207.685 42.1166 206.746 44.9539 204.869 46.9645C203.036 48.9752 200.355 49.9805 196.824 49.9805Z" fill="#021F27"/>
<path d="M215.114 2.39492H225.103L232.746 49.3103H225.371L224.031 39.9942V40.1283H215.65L214.309 49.3103H207.471L215.114 2.39492ZM223.159 33.7612L219.874 10.5716H219.74L216.522 33.7612H223.159Z" fill="#021F27"/>
<path d="M233.642 2.39492H244.57C248.369 2.39492 251.14 3.28855 252.883 5.0758C254.626 6.81837 255.498 9.52159 255.498 13.1855V16.0674C255.498 20.9377 253.889 24.0207 250.671 25.3164V25.4505C252.459 25.9867 253.71 27.0814 254.425 28.7346C255.185 30.3878 255.565 32.5995 255.565 35.3697V43.6134C255.565 44.9539 255.61 46.0486 255.699 46.8975C255.788 47.7018 256.012 48.506 256.37 49.3103H248.861C248.593 48.5507 248.414 47.8358 248.324 47.1656C248.235 46.4954 248.19 45.289 248.19 43.5464V34.9676C248.19 32.8229 247.833 31.3261 247.118 30.4771C246.447 29.6282 245.263 29.2037 243.564 29.2037H241.017V49.3103H233.642V2.39492ZM243.699 22.5015C245.173 22.5015 246.268 22.1217 246.984 21.3621C247.743 20.6026 248.123 19.3291 248.123 17.5419V13.9227C248.123 12.2248 247.81 10.9961 247.185 10.2365C246.604 9.47691 245.665 9.09712 244.369 9.09712H241.017V22.5015H243.699Z" fill="#021F27"/>
<path d="M263.699 2.39492H273.688L281.331 49.3103H273.956L272.615 39.9942V40.1283H264.235L262.894 49.3103H256.056L263.699 2.39492ZM271.744 33.7612L268.459 10.5716H268.325L265.107 33.7612H271.744Z" fill="#021F27"/>
<path d="M284.915 9.09712H277.206V2.39492H300V9.09712H292.29V49.3103H284.915V9.09712Z" fill="#021F27"/>
</svg>
